<?xml version="1.0" encoding="utf-8"?>
<!-- Generator: Adobe Illustrator 17.1.0, SVG Export Plug-In . SVG Version: 6.00 Build 0)  -->
<!DOCTYPE svg PUBLIC "-//W3C//DTD SVG 1.1//EN" "http://www.w3.org/Graphics/SVG/1.1/DTD/svg11.dtd">
<svg version="1.1" id="Layer_1" xmlns="http://www.w3.org/2000/svg" xmlns:xlink="http://www.w3.org/1999/xlink" x="0px" y="0px"
	 viewBox="0 0 244 304.2" enable-background="new 0 0 244 304.2" xml:space="preserve">
<g>
	<path fill="#ADADAD" d="M19.4,250.7c7.3-3.3,15-5,22.7-5c5.2,0,10.4,0.8,15.7,2.3l-4.2-106L8.2,165.2l-6,96.9
		C6.2,258.1,11.8,254.2,19.4,250.7z"/>
	<path fill="#ADADAD" d="M201.8,245.7c7.8,0,15.4,1.7,22.7,5c4.8,2.2,8.8,4.5,12.1,7l2.7-92.5L193.9,142l-4.1,105.1
		C193.8,246.2,197.8,245.7,201.8,245.7z"/>
	<polygon fill="#ADADAD" points="99,119.7 99,70.7 122.9,57.7 145,70.7 145,113.6 117.6,103.6 	"/>
	<path fill="#23211F" d="M106.2,226.5c0.6-0.8,1.2-1.5,1.8-2.2v-39.1l14-7.9l14,7.9v39.1c0.6,0.7,1.2,1.4,1.8,2.2
		c4.4-2.3,9.7-4.1,16.2-5v-44.5L122,159l-32,17.9v44.5C96.4,222.4,101.7,224.1,106.2,226.5z"/>
	<path fill="#23211F" d="M199,136.1V48.3L122,0L45,48.3v51v17.1l18-8.9v-51l59-36.8l59,36.8v70.4L154,113V66.4l-32-17.9L90,66.4V113
		L0,159.2v105.2c3.9-4.5,9.7-9,18-13V168L45,154v91.7c6,0.3,12,1.6,18,3.9V144.8l59-30.4l59,30.4v104.9c6-2.3,12-3.6,18-3.9V154
		l27,13.9v83.4c8.3,4,14.1,8.5,18,13V159.2L199,136.1z M108,103.8V74.7l14-7.1l14,7.1v29.1l-14-7.2L108,103.8z"/>
	<g>
		<path fill="#23211F" d="M219,263c-26.7-12.1-51.3,7.3-66,23.3c-5.1-3.4-9.5-7.4-13.1-11.7c1.8-2.8,3-6,3.5-9.2
			c2.6-16.7,20.8-31.2,20.8-31.2c-29,0-31.2,18-31.2,18c0-15.2-11-22.5-11-22.5s-11,7.3-11,22.5c0,0-2.1-18-31.2-18
			c0,0,18.2,14.5,20.8,31.2c0.5,3.2,1.6,6.4,3.5,9.2c-3.6,4.3-7.9,8.3-13.1,11.7c-14.7-16.1-39.3-35.4-66-23.3
			c-42.5,19.3-7.8,56.6,33,28c-17-13.2-22.4-14.3-29.8-7.6c3.8-17,34-6.6,56.6,6.5c-8.3,4.2-18.2,6.8-29.6,6.4c13,4,26,2.8,37.1-1.8
			c5.1,3.4,9.5,6.7,12.6,9.7c0,0-3.1-5-8.4-11.6c5.6-2.9,10.6-6.7,14.7-11.2c2.9,1.8,6.5,3,10.9,3c4.4,0,8-1.3,10.9-3
			c4.1,4.4,9,8.3,14.7,11.2c-5.4,6.6-8.4,11.6-8.4,11.6c3.1-3,7.5-6.3,12.6-9.7c11.1,4.6,24.2,5.8,37.1,1.8
			c-11.4,0.3-21.3-2.2-29.6-6.4c22.6-13.1,52.8-23.5,56.6-6.5c-7.4-6.8-12.8-5.7-29.8,7.6C226.8,319.6,261.5,282.3,219,263z"/>
	</g>
</g>
</svg>
